<svg xmlns="http://www.w3.org/2000/svg" width="192px" height="192px" version="1.1" shape-rendering="geometricPrecision" text-rendering="geometricPrecision" image-rendering="optimizeQuality" fill-rule="evenodd" clip-rule="evenodd"
viewBox="0 0 373.67 373.67"
 xmlns:xlink="http://www.w3.org/1999/xlink">
 <defs>
    <linearGradient id="id0" gradientUnits="userSpaceOnUse" x1="250.94" y1="365.39" x2="122.73" y2="8.28">
     <stop offset="0" stop-opacity="1" stop-color="#F1F6FA"/>
     <stop offset="1" stop-opacity="1" stop-color="white"/>
    </linearGradient>
     <clipPath id="id1">
      <path d="M186.83 51.22c82.48,0 149.34,67.66 149.34,151.12 0,48.97 -23.03,92.49 -58.71,120.1l-42.03 -55.69c19.14,-14.82 31.49,-38.15 31.49,-64.41 0,-44.76 -35.86,-81.04 -80.09,-81.04 -44.23,0 -80.08,36.28 -80.08,81.04 0,26.26 12.35,49.59 31.48,64.41l-42.02 55.69c-35.69,-27.61 -58.71,-71.13 -58.71,-120.1 0,-83.46 66.86,-151.12 149.33,-151.12z"/>
     </clipPath>
 </defs>
 <g id="Layer_x0020_1">
  <metadata id="CorelCorpID_0Corel-Layer"/>
  <g id="_889057072">
   <rect fill="url(#id0)" width="373.67" height="373.67" rx="26.27" ry="33.14"/>
   <g>
    <g clip-path="url(#id1)">
     <polygon fill="#4FDBE2" points="192.81,205.36 191.47,425.81 183.47,425.61 "/>
     <polygon id="1" fill="#4FDADF" points="192.81,205.36 184.81,425.64 178.15,425.32 "/>
     <polygon id="2" fill="#4FDADC" points="192.81,205.36 179.48,425.38 172.83,424.89 "/>
     <polygon id="3" fill="#50D9DA" points="192.81,205.36 174.16,424.98 167.53,424.32 "/>
     <polygon id="4" fill="#50D8D7" points="192.81,205.36 168.85,424.46 162.24,423.63 "/>
     <polygon id="5" fill="#50D8D4" points="192.81,205.36 163.56,423.79 156.96,422.8 "/>
     <polygon id="6" fill="#50D7D1" points="192.81,205.36 158.28,423 151.72,421.85 "/>
     <polygon id="7" fill="#50D6CF" points="192.81,205.36 153.03,422.08 146.49,420.76 "/>
     <polygon id="8" fill="#50D6CC" points="192.81,205.36 147.8,421.02 141.29,419.54 "/>
     <polygon id="9" fill="#50D5CA" points="192.81,205.36 142.6,419.84 136.13,418.2 "/>
     <polygon id="10" fill="#51D4C7" points="192.81,205.36 137.42,418.53 130.99,416.72 "/>
     <polygon id="11" fill="#51D4C5" points="192.81,205.36 132.28,417.08 125.9,415.12 "/>
     <polygon id="12" fill="#51D3C2" points="192.81,205.36 127.18,415.51 120.85,413.39 "/>
     <polygon id="13" fill="#51D2C0" points="192.81,205.36 122.11,413.82 115.83,411.54 "/>
     <polygon id="14" fill="#51D2BE" points="192.81,205.36 117.09,412 110.87,409.56 "/>
     <polygon id="15" fill="#51D1BB" points="192.81,205.36 112.11,410.05 105.96,407.46 "/>
     <polygon id="16" fill="#51D1B9" points="192.81,205.36 107.19,407.98 101.09,405.24 "/>
     <polygon id="17" fill="#52D0B7" points="192.81,205.36 102.31,405.79 96.29,402.9 "/>
     <polygon id="18" fill="#52CFB5" points="192.81,205.36 97.49,403.48 91.53,400.44 "/>
     <polygon id="19" fill="#52CFB2" points="192.81,205.36 92.72,401.05 86.84,397.86 "/>
     <polygon id="20" fill="#52CEB0" points="192.81,205.36 88.02,398.5 82.22,395.16 "/>
     <polygon id="21" fill="#52CEAE" points="192.81,205.36 83.38,395.83 77.66,392.36 "/>
     <polygon id="22" fill="#52CDAC" points="192.81,205.36 78.81,393.05 73.17,389.43 "/>
     <polygon id="23" fill="#52CDAA" points="192.81,205.36 74.3,390.16 68.76,386.4 "/>
     <polygon id="24" fill="#52CCA8" points="192.81,205.36 69.86,387.15 64.41,383.26 "/>
     <polygon id="25" fill="#52CCA6" points="192.81,205.36 65.5,384.04 60.15,380.01 "/>
     <polygon id="26" fill="#53CBA4" points="192.81,205.36 61.22,380.82 55.96,376.66 "/>
     <polygon id="27" fill="#53CBA2" points="192.81,205.36 57.02,377.49 51.86,373.2 "/>
     <polygon id="28" fill="#53CAA0" points="192.81,205.36 52.89,374.06 47.85,369.64 "/>
     <polygon id="29" fill="#53CA9E" points="192.81,205.36 48.86,370.53 43.92,365.99 "/>
     <polygon id="30" fill="#53C99C" points="192.81,205.36 44.9,366.89 40.07,362.23 "/>
     <polygon id="31" fill="#53C99B" points="192.81,205.36 41.04,363.16 36.33,358.38 "/>
     <polygon id="32" fill="#53C899" points="192.81,205.36 37.27,359.34 32.67,354.44 "/>
     <polygon id="33" fill="#53C897" points="192.81,205.36 33.59,355.42 29.11,350.41 "/>
     <polygon id="34" fill="#53C795" points="192.81,205.36 30.01,351.41 25.66,346.29 "/>
     <polygon id="35" fill="#53C793" points="192.81,205.36 26.53,347.32 22.3,342.09 "/>
     <polygon id="36" fill="#54C691" points="192.81,205.36 23.14,343.14 19.04,337.81 "/>
     <polygon id="37" fill="#54C68F" points="192.81,205.36 19.86,338.87 15.89,333.44 "/>
     <polygon id="38" fill="#54C58D" points="192.81,205.36 16.68,334.53 12.84,329 "/>
     <polygon id="39" fill="#54C58B" points="192.81,205.36 13.61,330.1 9.91,324.48 "/>
     <polygon id="40" fill="#54C489" points="192.81,205.36 10.65,325.61 7.08,319.89 "/>
     <polygon id="41" fill="#54C487" points="192.81,205.36 7.8,321.04 4.37,315.24 "/>
     <polygon id="42" fill="#54C385" points="192.81,205.36 5.05,316.4 1.77,310.51 "/>
     <polygon id="43" fill="#54C283" points="192.81,205.36 2.43,311.69 -0.72,305.73 "/>
     <polygon id="44" fill="#55C281" points="192.81,205.36 -0.09,306.92 -3.09,300.88 "/>
     <polygon id="45" fill="#55C17E" points="192.81,205.36 -2.49,302.09 -5.34,295.97 "/>
     <polygon id="46" fill="#55C17C" points="192.81,205.36 -4.77,297.2 -7.47,291.02 "/>
     <polygon id="47" fill="#55C07A" points="192.81,205.36 -6.93,292.25 -9.48,286 "/>
     <polygon id="48" fill="#55C078" points="192.81,205.36 -8.97,287.26 -11.37,280.95 "/>
     <polygon id="49" fill="#55BF75" points="192.81,205.36 -10.89,282.21 -13.13,275.84 "/>
     <polygon id="50" fill="#55BE73" points="192.81,205.36 -12.69,277.11 -14.78,270.69 "/>
     <polygon id="51" fill="#55BE71" points="192.81,205.36 -14.36,271.98 -16.29,265.51 "/>
     <polygon id="52" fill="#55BD6E" points="192.81,205.36 -15.91,266.8 -17.69,260.28 "/>
     <polygon id="53" fill="#56BD6C" points="192.81,205.36 -17.33,261.59 -18.95,255.03 "/>
     <polygon id="54" fill="#56BC6A" points="192.81,205.36 -18.63,256.34 -20.09,249.74 "/>
     <polygon id="55" fill="#56BB67" points="192.81,205.36 -19.79,251.06 -21.09,244.43 "/>
     <polygon id="56" fill="#56BB65" points="192.81,205.36 -20.83,245.75 -21.97,239.09 "/>
     <polygon id="57" fill="#56BA62" points="192.81,205.36 -21.75,240.43 -22.72,233.73 "/>
     <polygon id="58" fill="#56B960" points="192.81,205.36 -22.53,235.07 -23.34,228.36 "/>
     <polygon id="59" fill="#56B95D" points="192.81,205.36 -23.18,229.7 -23.84,222.97 "/>
     <polygon id="60" fill="#57B85A" points="192.81,205.36 -23.71,224.32 -24.2,217.57 "/>
     <polygon id="61" fill="#57B758" points="192.81,205.36 -24.1,218.92 -24.43,212.17 "/>
     <polygon id="62" fill="#57B755" points="192.81,205.36 -24.36,213.52 -24.52,206.76 "/>
     <polygon id="63" fill="#58B653" points="192.81,205.36 -24.49,208.11 -24.49,201.35 "/>
     <polygon id="64" fill="#5BB651" points="192.81,205.36 -24.49,202.7 -24.33,195.94 "/>
     <polygon id="65" fill="#5EB74F" points="192.81,205.36 -24.36,197.29 -24.03,190.54 "/>
     <polygon id="66" fill="#61B74E" points="192.81,205.36 -24.1,191.89 -23.61,185.15 "/>
     <polygon id="67" fill="#65B84C" points="192.81,205.36 -23.71,186.49 -23.05,179.76 "/>
     <polygon id="68" fill="#68B84B" points="192.81,205.36 -23.18,181.11 -22.37,174.4 "/>
     <polygon id="69" fill="#6BB849" points="192.81,205.36 -22.53,175.74 -21.55,169.05 "/>
     <polygon id="70" fill="#6EB948" points="192.81,205.36 -21.75,170.39 -20.61,163.72 "/>
     <polygon id="71" fill="#70B946" points="192.81,205.36 -20.83,165.06 -19.53,158.43 "/>
     <polygon id="72" fill="#73B945" points="192.81,205.36 -19.79,159.75 -18.33,153.15 "/>
     <polygon id="73" fill="#76BA44" points="192.81,205.36 -18.63,154.47 -17.01,147.91 "/>
     <polygon id="74" fill="#79BA42" points="192.81,205.36 -17.33,149.22 -15.55,142.71 "/>
     <polygon id="75" fill="#7CBA41" points="192.81,205.36 -15.91,144.01 -13.97,137.54 "/>
     <polygon id="76" fill="#7EBB3F" points="192.81,205.36 -14.36,138.83 -12.27,132.41 "/>
     <polygon id="77" fill="#81BB3E" points="192.81,205.36 -12.69,133.7 -10.44,127.33 "/>
     <polygon id="78" fill="#84BB3D" points="192.81,205.36 -10.89,128.6 -8.49,122.29 "/>
     <polygon id="79" fill="#86BC3C" points="192.81,205.36 -8.97,123.55 -6.42,117.3 "/>
     <polygon id="80" fill="#89BC3A" points="192.81,205.36 -6.93,118.55 -4.23,112.37 "/>
     <polygon id="81" fill="#8CBC39" points="192.81,205.36 -4.77,113.61 -1.92,107.49 "/>
     <polygon id="82" fill="#8EBD38" points="192.81,205.36 -2.49,108.72 0.51,102.68 "/>
     <polygon id="83" fill="#91BD37" points="192.81,205.36 -0.09,103.88 3.05,97.92 "/>
     <polygon id="84" fill="#93BD35" points="192.81,205.36 2.43,99.11 5.71,93.23 "/>
     <polygon id="85" fill="#95BD34" points="192.81,205.36 5.05,94.4 8.48,88.6 "/>
     <polygon id="86" fill="#98BE33" points="192.81,205.36 7.8,89.76 11.36,84.05 "/>
     <polygon id="87" fill="#9ABE32" points="192.81,205.36 10.65,85.19 14.35,79.57 "/>
     <polygon id="88" fill="#9CBE31" points="192.81,205.36 13.61,80.69 17.45,75.16 "/>
     <polygon id="89" fill="#9FBF30" points="192.81,205.36 16.68,76.27 20.66,70.84 "/>
     <polygon id="90" fill="#A1BF2E" points="192.81,205.36 19.86,71.92 23.96,66.59 "/>
     <polygon id="91" fill="#A3BF2D" points="192.81,205.36 23.14,67.66 27.37,62.43 "/>
     <polygon id="92" fill="#A5BF2C" points="192.81,205.36 26.53,63.47 30.88,58.35 "/>
     <polygon id="93" fill="#A8C02B" points="192.81,205.36 30.01,59.38 34.49,54.36 "/>
     <polygon id="94" fill="#AAC02A" points="192.81,205.36 33.59,55.37 38.19,50.47 "/>
     <polygon id="95" fill="#ACC029" points="192.81,205.36 37.27,51.45 41.98,46.66 "/>
     <polygon id="96" fill="#AEC028" points="192.81,205.36 41.04,47.62 45.87,42.96 "/>
     <polygon id="97" fill="#B0C127" points="192.81,205.36 44.9,43.89 49.84,39.35 "/>
     <polygon id="98" fill="#B2C126" points="192.81,205.36 48.86,40.26 53.9,35.84 "/>
     <polygon id="99" fill="#B5C125" points="192.81,205.36 52.89,36.72 58.05,32.43 "/>
     <polygon id="100" fill="#B7C124" points="192.81,205.36 57.02,33.29 62.27,29.13 "/>
     <polygon id="101" fill="#B9C223" points="192.81,205.36 61.22,29.96 66.58,25.93 "/>
     <polygon id="102" fill="#BBC221" points="192.81,205.36 65.5,26.74 70.96,22.84 "/>
     <polygon id="103" fill="#BEC220" points="192.81,205.36 69.86,23.62 75.41,19.86 "/>
     <polygon id="104" fill="#C0C31F" points="192.81,205.36 74.3,20.61 79.93,16.99 "/>
     <polygon id="105" fill="#C2C31E" points="192.81,205.36 78.81,17.72 84.53,14.24 "/>
     <polygon id="106" fill="#C5C31D" points="192.81,205.36 83.38,14.94 89.18,11.6 "/>
     <polygon id="107" fill="#C7C31C" points="192.81,205.36 88.02,12.27 93.9,9.08 "/>
     <polygon id="108" fill="#CAC41A" points="192.81,205.36 92.72,9.72 98.68,6.68 "/>
     <polygon id="109" fill="#CCC419" points="192.81,205.36 97.49,7.28 103.52,4.39 "/>
     <polygon id="110" fill="#CFC418" points="192.81,205.36 102.31,4.97 108.41,2.23 "/>
     <polygon id="111" fill="#D2C516" points="192.81,205.36 107.19,2.77 113.35,0.19 "/>
     <polygon id="112" fill="#D4C515" points="192.81,205.36 112.11,0.7 118.34,-1.73 "/>
     <polygon id="113" fill="#D7C514" points="192.81,205.36 117.09,-1.24 123.37,-3.52 "/>
     <polygon id="114" fill="#DAC613" points="192.81,205.36 122.11,-3.07 128.44,-5.19 "/>
     <polygon id="115" fill="#DCC611" points="192.81,205.36 127.18,-4.77 133.56,-6.73 "/>
     <polygon id="116" fill="#DFC610" points="192.81,205.36 132.28,-6.34 138.71,-8.14 "/>
     <polygon id="117" fill="#E2C70E" points="192.81,205.36 137.42,-7.78 143.89,-9.43 "/>
     <polygon id="118" fill="#E5C70D" points="192.81,205.36 142.6,-9.1 149.1,-10.58 "/>
     <polygon id="119" fill="#E8C70C" points="192.81,205.36 147.8,-10.28 154.34,-11.61 "/>
     <polygon id="120" fill="#EBC80A" points="192.81,205.36 153.03,-11.34 159.6,-12.5 "/>
     <polygon id="121" fill="#EEC809" points="192.81,205.36 158.28,-12.27 164.88,-13.26 "/>
     <polygon id="122" fill="#F1C807" points="192.81,205.36 163.56,-13.06 170.18,-13.89 "/>
     <polygon id="123" fill="#F4C906" points="192.81,205.36 168.85,-13.73 175.49,-14.39 "/>
     <polygon id="124" fill="#F7C904" points="192.81,205.36 174.16,-14.26 180.81,-14.75 "/>
     <polygon id="125" fill="#FAC902" points="192.81,205.36 179.48,-14.66 186.14,-14.99 "/>
     <polygon id="126" fill="#FDCA01" points="192.81,205.36 184.81,-14.92 191.47,-15.09 "/>
     <polygon id="127" fill="#FFCA00" points="192.81,205.36 190.14,-15.06 196.81,-15.06 "/>
     <polygon id="128" fill="#FFC900" points="192.81,205.36 195.47,-15.06 202.14,-14.89 "/>
     <polygon id="129" fill="#FFC800" points="192.81,205.36 200.81,-14.93 207.47,-14.6 "/>
     <polygon id="130" fill="#FFC800" points="192.81,205.36 206.13,-14.66 212.78,-14.16 "/>
     <polygon id="131" fill="#FFC700" points="192.81,205.36 211.45,-14.27 218.09,-13.6 "/>
     <polygon id="132" fill="#FFC600" points="192.81,205.36 216.76,-13.73 223.38,-12.91 "/>
     <polygon id="133" fill="#FFC600" points="192.81,205.36 222.05,-13.07 228.65,-12.08 "/>
     <polygon id="134" fill="#FFC500" points="192.81,205.36 227.33,-12.28 233.9,-11.13 "/>
     <polygon id="135" fill="#FFC500" points="192.81,205.36 232.58,-11.36 239.12,-10.04 "/>
     <polygon id="136" fill="#FFC400" points="192.81,205.36 237.81,-10.3 244.32,-8.82 "/>
     <polygon id="137" fill="#FFC400" points="192.81,205.36 243.02,-9.12 249.49,-7.48 "/>
     <polygon id="138" fill="#FFC300" points="192.81,205.36 248.19,-7.81 254.62,-6 "/>
     <polygon id="139" fill="#FFC200" points="192.81,205.36 253.33,-6.36 259.71,-4.4 "/>
     <polygon id="140" fill="#FFC200" points="192.81,205.36 258.44,-4.79 264.77,-2.68 "/>
     <polygon id="141" fill="#FFC100" points="192.81,205.36 263.5,-3.1 269.78,-0.82 "/>
     <polygon id="142" fill="#FFC100" points="192.81,205.36 268.52,-1.28 274.74,1.16 "/>
     <polygon id="143" fill="#FFC000" points="192.81,205.36 273.5,0.67 279.66,3.25 "/>
     <polygon id="144" fill="#FFC000" points="192.81,205.36 278.43,2.74 284.52,5.48 "/>
     <polygon id="145" fill="#FFBF00" points="192.81,205.36 283.3,4.93 289.33,7.82 "/>
     <polygon id="146" fill="#FFBF00" points="192.81,205.36 288.12,7.24 294.08,10.28 "/>
     <polygon id="147" fill="#FFBE00" points="192.81,205.36 292.89,9.67 298.77,12.86 "/>
     <polygon id="148" fill="#FFBE00" points="192.81,205.36 297.59,12.22 303.39,15.55 "/>
     <polygon id="149" fill="#FFBD00" points="192.81,205.36 302.23,14.89 307.95,18.36 "/>
     <polygon id="150" fill="#FFBD00" points="192.81,205.36 306.81,17.67 312.44,21.29 "/>
     <polygon id="151" fill="#FFBC00" points="192.81,205.36 311.31,20.56 316.86,24.32 "/>
     <polygon id="152" fill="#FFBC00" points="192.81,205.36 315.75,23.57 321.2,27.46 "/>
     <polygon id="153" fill="#FFBB00" points="192.81,205.36 320.11,26.68 325.46,30.71 "/>
     <polygon id="154" fill="#FFBB00" points="192.81,205.36 324.39,29.9 329.65,34.06 "/>
     <polygon id="155" fill="#FFBA00" points="192.81,205.36 328.6,33.23 333.75,37.52 "/>
     <polygon id="156" fill="#FFBA00" points="192.81,205.36 332.72,36.66 337.77,41.08 "/>
     <polygon id="157" fill="#FFBA00" points="192.81,205.36 336.76,40.19 341.7,44.73 "/>
     <polygon id="158" fill="#FFB900" points="192.81,205.36 340.71,43.83 345.54,48.49 "/>
     <polygon id="159" fill="#FEB900" points="192.81,205.36 344.57,47.56 349.29,52.34 "/>
     <polygon id="160" fill="#FEB800" points="192.81,205.36 348.34,51.38 352.94,56.28 "/>
     <polygon id="161" fill="#FEB800" points="192.81,205.36 352.02,55.3 356.5,60.31 "/>
     <polygon id="162" fill="#FEB700" points="192.81,205.36 355.6,59.31 359.96,64.43 "/>
     <polygon id="163" fill="#FEB700" points="192.81,205.36 359.09,63.4 363.32,68.63 "/>
     <polygon id="164" fill="#FEB700" points="192.81,205.36 362.47,67.58 366.57,72.91 "/>
     <polygon id="165" fill="#FEB600" points="192.81,205.36 365.75,71.85 369.72,77.28 "/>
     <polygon id="166" fill="#FEB600" points="192.81,205.36 368.93,76.19 372.77,81.72 "/>
     <polygon id="167" fill="#FEB500" points="192.81,205.36 372,80.62 375.7,86.24 "/>
     <polygon id="168" fill="#FEB500" points="192.81,205.36 374.96,85.11 378.53,90.83 "/>
     <polygon id="169" fill="#FEB400" points="192.81,205.36 377.82,89.68 381.24,95.48 "/>
     <polygon id="170" fill="#FEB400" points="192.81,205.36 380.56,94.32 383.85,100.21 "/>
     <polygon id="171" fill="#FEB300" points="192.81,205.36 383.19,99.03 386.33,104.99 "/>
     <polygon id="172" fill="#FEB300" points="192.81,205.36 385.7,103.8 388.7,109.84 "/>
     <polygon id="173" fill="#FEB200" points="192.81,205.36 388.1,108.63 390.95,114.75 "/>
     <polygon id="174" fill="#FEB200" points="192.81,205.36 390.38,113.52 393.08,119.7 "/>
     <polygon id="175" fill="#FEB100" points="192.81,205.36 392.54,118.47 395.09,124.71 "/>
     <polygon id="176" fill="#FEB100" points="192.81,205.36 394.58,123.46 396.98,129.77 "/>
     <polygon id="177" fill="#FEB000" points="192.81,205.36 396.5,128.51 398.75,134.88 "/>
     <polygon id="178" fill="#FEAF00" points="192.81,205.36 398.3,133.61 400.39,140.03 "/>
     <polygon id="179" fill="#FEAF00" points="192.81,205.36 399.97,138.74 401.91,145.21 "/>
     <polygon id="180" fill="#FEAE00" points="192.81,205.36 401.52,143.92 403.3,150.44 "/>
     <polygon id="181" fill="#FEAE00" points="192.81,205.36 402.94,149.13 404.56,155.69 "/>
     <polygon id="182" fill="#FEAD00" points="192.81,205.36 404.24,154.38 405.7,160.98 "/>
     <polygon id="183" fill="#FEAD00" points="192.81,205.36 405.41,159.66 406.71,166.29 "/>
     <polygon id="184" fill="#FEAC00" points="192.81,205.36 406.45,164.97 407.59,171.63 "/>
     <polygon id="185" fill="#FEAB00" points="192.81,205.36 407.36,170.3 408.34,176.99 "/>
     <polygon id="186" fill="#FEAB00" points="192.81,205.36 408.14,175.65 408.96,182.36 "/>
     <polygon id="187" fill="#FEAA00" points="192.81,205.36 408.8,181.01 409.45,187.75 "/>
     <polygon id="188" fill="#FEA900" points="192.81,205.36 409.32,186.4 409.81,193.14 "/>
     <polygon id="189" fill="#FEA900" points="192.81,205.36 409.71,191.8 410.04,198.55 "/>
     <polygon id="190" fill="#FEA800" points="192.81,205.36 409.97,197.2 410.14,203.96 "/>
     <polygon id="191" fill="#FEA700" points="192.81,205.36 410.1,202.61 410.1,209.37 "/>
     <polygon id="192" fill="#FEA601" points="192.81,205.36 410.1,208.02 409.94,214.78 "/>
     <polygon id="193" fill="#FEA401" points="192.81,205.36 409.97,213.43 409.65,220.18 "/>
     <polygon id="194" fill="#FEA302" points="192.81,205.36 409.71,218.83 409.22,225.57 "/>
     <polygon id="195" fill="#FEA103" points="192.81,205.36 409.32,224.22 408.66,230.95 "/>
     <polygon id="196" fill="#FEA003" points="192.81,205.36 408.8,229.61 407.98,236.32 "/>
     <polygon id="197" fill="#FE9F04" points="192.81,205.36 408.14,234.98 407.16,241.67 "/>
     <polygon id="198" fill="#FE9D04" points="192.81,205.36 407.36,240.33 406.22,246.99 "/>
     <polygon id="199" fill="#FE9C04" points="192.81,205.36 406.45,245.66 405.15,252.3 "/>
     <polygon id="200" fill="#FE9B05" points="192.81,205.36 405.41,250.97 403.95,257.57 "/>
     <polygon id="201" fill="#FE9A05" points="192.81,205.36 404.24,256.25 402.62,262.81 "/>
     <polygon id="202" fill="#FE9806" points="192.81,205.36 402.94,261.49 401.16,268.01 "/>
     <polygon id="203" fill="#FE9706" points="192.81,205.36 401.52,266.71 399.58,273.18 "/>
     <polygon id="204" fill="#FE9607" points="192.81,205.36 399.97,271.89 397.88,278.31 "/>
     <polygon id="205" fill="#FE9507" points="192.81,205.36 398.3,277.02 396.05,283.39 "/>
     <polygon id="206" fill="#FE9408" points="192.81,205.36 396.5,282.12 394.1,288.43 "/>
     <polygon id="207" fill="#FE9308" points="192.81,205.36 394.58,287.17 392.03,293.42 "/>
     <polygon id="208" fill="#FE9109" points="192.81,205.36 392.54,292.17 389.84,298.35 "/>
     <polygon id="209" fill="#FE9009" points="192.81,205.36 390.38,297.11 387.53,303.23 "/>
     <polygon id="210" fill="#FE8F09" points="192.81,205.36 388.1,302 385.1,308.04 "/>
     <polygon id="211" fill="#FE8E0A" points="192.81,205.36 385.7,306.83 382.56,312.8 "/>
     <polygon id="212" fill="#FE8D0A" points="192.81,205.36 383.19,311.61 379.9,317.49 "/>
     <polygon id="213" fill="#FE8C0B" points="192.81,205.36 380.56,316.31 377.13,322.12 "/>
     <polygon id="214" fill="#FE8B0B" points="192.81,205.36 377.82,320.96 374.25,326.67 "/>
     <polygon id="215" fill="#FE8A0B" points="192.81,205.36 374.96,325.53 371.26,331.15 "/>
     <polygon id="216" fill="#FE890C" points="192.81,205.36 372,330.03 368.16,335.56 "/>
     <polygon id="217" fill="#FE880C" points="192.81,205.36 368.93,334.45 364.96,339.88 "/>
     <polygon id="218" fill="#FE870D" points="192.81,205.36 365.75,338.8 361.65,344.13 "/>
     <polygon id="219" fill="#FE860D" points="192.81,205.36 362.47,343.06 358.24,348.29 "/>
     <polygon id="220" fill="#FE850D" points="192.81,205.36 359.09,347.24 354.73,352.37 "/>
     <polygon id="221" fill="#FE840E" points="192.81,205.36 355.6,351.34 351.12,356.35 "/>
     <polygon id="222" fill="#FE830E" points="192.81,205.36 352.02,355.35 347.42,360.25 "/>
     <polygon id="223" fill="#FF820E" points="192.81,205.36 348.34,359.27 343.63,364.05 "/>
     <polygon id="224" fill="#FF810F" points="192.81,205.36 344.57,363.1 339.74,367.76 "/>
     <polygon id="225" fill="#FF800F" points="192.81,205.36 340.71,366.83 335.77,371.37 "/>
     <polygon id="226" fill="#FF7F0F" points="192.81,205.36 336.76,370.46 331.71,374.88 "/>
     <polygon id="227" fill="#FF7E10" points="192.81,205.36 332.72,374 327.57,378.29 "/>
     <polygon id="228" fill="#FF7D10" points="192.81,205.36 328.6,377.43 323.34,381.59 "/>
     <polygon id="229" fill="#FF7C11" points="192.81,205.36 324.39,380.76 319.04,384.79 "/>
     <polygon id="230" fill="#FF7B11" points="192.81,205.36 320.11,383.98 314.66,387.88 "/>
     <polygon id="231" fill="#FF7A11" points="192.81,205.36 315.75,387.1 310.2,390.86 "/>
     <polygon id="232" fill="#FF7912" points="192.81,205.36 311.31,390.11 305.68,393.73 "/>
     <polygon id="233" fill="#FF7812" points="192.81,205.36 306.81,393 301.09,396.48 "/>
     <polygon id="234" fill="#FF7713" points="192.81,205.36 302.23,395.78 296.43,399.12 "/>
     <polygon id="235" fill="#FF7613" points="192.81,205.36 297.59,398.45 291.71,401.64 "/>
     <polygon id="236" fill="#FF7513" points="192.81,205.36 292.89,401 286.93,404.04 "/>
     <polygon id="237" fill="#FF7414" points="192.81,205.36 288.12,403.44 282.1,406.33 "/>
     <polygon id="238" fill="#FF7314" points="192.81,205.36 283.3,405.75 277.21,408.49 "/>
     <polygon id="239" fill="#FF7115" points="192.81,205.36 278.43,407.94 272.27,410.53 "/>
     <polygon id="240" fill="#FF7015" points="192.81,205.36 273.5,410.02 267.28,412.45 "/>
     <polygon id="241" fill="#FF6F16" points="192.81,205.36 268.52,411.96 262.24,414.24 "/>
     <polygon id="242" fill="#FF6E16" points="192.81,205.36 263.5,413.79 257.17,415.91 "/>
     <polygon id="243" fill="#FF6D16" points="192.81,205.36 258.44,415.48 252.06,417.45 "/>
     <polygon id="244" fill="#FF6B17" points="192.81,205.36 253.33,417.06 246.91,418.86 "/>
     <polygon id="245" fill="#FF6A17" points="192.81,205.36 248.19,418.5 241.72,420.15 "/>
     <polygon id="246" fill="#FF6918" points="192.81,205.36 243.02,419.82 236.51,421.3 "/>
     <polygon id="247" fill="#FF6818" points="192.81,205.36 237.81,421 231.27,422.33 "/>
     <polygon id="248" fill="#FF6619" points="192.81,205.36 232.58,422.06 226.02,423.22 "/>
     <polygon id="249" fill="#FF6519" points="192.81,205.36 227.33,422.98 220.73,423.98 "/>
     <polygon id="250" fill="#FF641A" points="192.81,205.36 222.05,423.78 215.43,424.61 "/>
     <polygon id="251" fill="#FF621A" points="192.81,205.36 216.76,424.44 210.12,425.11 "/>
     <polygon id="252" fill="#FF611B" points="192.81,205.36 211.45,424.98 204.8,425.47 "/>
     <polygon id="253" fill="#FF5F1B" points="192.81,205.36 206.13,425.38 199.47,425.71 "/>
     <polygon id="254" fill="#FF5E1C" points="192.81,205.36 200.81,425.64 194.14,425.81 "/>
     <polygon id="255" fill="#4FDCE5" points="192.81,205.36 195.47,425.78 190.14,425.78 "/>
    </g>
   </g>
  </g>
 </g>
</svg>
