<svg xmlns="http://www.w3.org/2000/svg" width="180px" height="180px" version="1.1" shape-rendering="geometricPrecision" text-rendering="geometricPrecision" image-rendering="optimizeQuality" fill-rule="evenodd" clip-rule="evenodd"
viewBox="0 0 373.9 373.9"
 xmlns:xlink="http://www.w3.org/1999/xlink">
 <defs>
   <linearGradient id="id0" gradientUnits="userSpaceOnUse" x1="251.09" y1="365.61" x2="122.8" y2="8.28">
    <stop offset="0" stop-opacity="1" stop-color="#F1F6FA"/>
    <stop offset="1" stop-opacity="1" stop-color="white"/>
   </linearGradient>
    <clipPath id="id1">
     <path d="M186.95 51.25c82.52,0 149.43,67.7 149.43,151.21 0,49 -23.04,92.55 -58.75,120.18l-42.05 -55.73c19.15,-14.82 31.5,-38.17 31.5,-64.45 0,-44.78 -35.88,-81.08 -80.13,-81.08 -44.26,0 -80.13,36.3 -80.13,81.08 0,26.28 12.35,49.63 31.5,64.45l-42.05 55.73c-35.71,-27.63 -58.75,-71.18 -58.75,-120.18 0,-83.51 66.9,-151.21 149.43,-151.21z"/>
    </clipPath>
 </defs>
 <g id="Layer_x0020_1">
  <metadata id="CorelCorpID_0Corel-Layer"/>
  <rect fill="url(#id0)" width="373.9" height="373.9" rx="26.28" ry="33.16"/>
  <g>
   <g clip-path="url(#id1)">
    <polygon fill="#4FDBE2" points="192.92,205.49 191.59,426.07 183.59,425.88 "/>
    <polygon id="1" fill="#4FDADF" points="192.92,205.49 184.92,425.91 178.26,425.58 "/>
    <polygon id="2" fill="#4FDADC" points="192.92,205.49 179.59,425.65 172.94,425.15 "/>
    <polygon id="3" fill="#50D9DA" points="192.92,205.49 174.27,425.25 167.63,424.59 "/>
    <polygon id="4" fill="#50D8D7" points="192.92,205.49 168.96,424.72 162.34,423.89 "/>
    <polygon id="5" fill="#50D8D4" points="192.92,205.49 163.66,424.06 157.06,423.06 "/>
    <polygon id="6" fill="#50D7D1" points="192.92,205.49 158.38,423.26 151.81,422.11 "/>
    <polygon id="7" fill="#50D6CF" points="192.92,205.49 153.12,422.34 146.58,421.02 "/>
    <polygon id="8" fill="#50D6CC" points="192.92,205.49 147.89,421.28 141.38,419.8 "/>
    <polygon id="9" fill="#50D5CA" points="192.92,205.49 142.68,420.1 136.21,418.46 "/>
    <polygon id="10" fill="#51D4C7" points="192.92,205.49 137.5,418.79 131.07,416.98 "/>
    <polygon id="11" fill="#51D4C5" points="192.92,205.49 132.36,417.34 125.98,415.38 "/>
    <polygon id="12" fill="#51D3C2" points="192.92,205.49 127.25,415.77 120.92,413.65 "/>
    <polygon id="13" fill="#51D2C0" points="192.92,205.49 122.19,414.08 115.91,411.8 "/>
    <polygon id="14" fill="#51D2BE" points="192.92,205.49 117.16,412.25 110.94,409.82 "/>
    <polygon id="15" fill="#51D1BB" points="192.92,205.49 112.18,410.3 106.02,407.72 "/>
    <polygon id="16" fill="#51D1B9" points="192.92,205.49 107.25,408.23 101.15,405.49 "/>
    <polygon id="17" fill="#52D0B7" points="192.92,205.49 102.37,406.04 96.34,403.15 "/>
    <polygon id="18" fill="#52CFB5" points="192.92,205.49 97.55,403.73 91.59,400.69 "/>
    <polygon id="19" fill="#52CFB2" points="192.92,205.49 92.78,401.3 86.9,398.11 "/>
    <polygon id="20" fill="#52CEB0" points="192.92,205.49 88.08,398.74 82.27,395.41 "/>
    <polygon id="21" fill="#52CEAE" points="192.92,205.49 83.43,396.08 77.71,392.6 "/>
    <polygon id="22" fill="#52CDAC" points="192.92,205.49 78.85,393.29 73.22,389.68 "/>
    <polygon id="23" fill="#52CDAA" points="192.92,205.49 74.34,390.4 68.8,386.64 "/>
    <polygon id="24" fill="#52CCA8" points="192.92,205.49 69.91,387.39 64.45,383.5 "/>
    <polygon id="25" fill="#52CCA6" points="192.92,205.49 65.54,384.28 60.19,380.25 "/>
    <polygon id="26" fill="#53CBA4" points="192.92,205.49 61.26,381.05 56,376.89 "/>
    <polygon id="27" fill="#53CBA2" points="192.92,205.49 57.05,377.72 51.89,373.43 "/>
    <polygon id="28" fill="#53CAA0" points="192.92,205.49 52.92,374.29 47.87,369.87 "/>
    <polygon id="29" fill="#53CA9E" points="192.92,205.49 48.88,370.76 43.94,366.21 "/>
    <polygon id="30" fill="#53C99C" points="192.92,205.49 44.93,367.12 40.1,362.46 "/>
    <polygon id="31" fill="#53C99B" points="192.92,205.49 41.06,363.39 36.35,358.6 "/>
    <polygon id="32" fill="#53C899" points="192.92,205.49 37.29,359.56 32.69,354.66 "/>
    <polygon id="33" fill="#53C897" points="192.92,205.49 33.61,355.64 29.13,350.63 "/>
    <polygon id="34" fill="#53C795" points="192.92,205.49 30.03,351.63 25.67,346.51 "/>
    <polygon id="35" fill="#53C793" points="192.92,205.49 26.54,347.53 22.31,342.3 "/>
    <polygon id="36" fill="#54C691" points="192.92,205.49 23.16,343.35 19.05,338.02 "/>
    <polygon id="37" fill="#54C68F" points="192.92,205.49 19.87,339.08 15.9,333.65 "/>
    <polygon id="38" fill="#54C58D" points="192.92,205.49 16.69,334.74 12.85,329.2 "/>
    <polygon id="39" fill="#54C58B" points="192.92,205.49 13.62,330.31 9.91,324.68 "/>
    <polygon id="40" fill="#54C489" points="192.92,205.49 10.66,325.81 7.09,320.09 "/>
    <polygon id="41" fill="#54C487" points="192.92,205.49 7.8,321.24 4.37,315.43 "/>
    <polygon id="42" fill="#54C385" points="192.92,205.49 5.06,316.59 1.77,310.71 "/>
    <polygon id="43" fill="#54C283" points="192.92,205.49 2.43,311.88 -0.72,305.92 "/>
    <polygon id="44" fill="#55C281" points="192.92,205.49 -0.09,307.11 -3.09,301.06 "/>
    <polygon id="45" fill="#55C17E" points="192.92,205.49 -2.49,302.27 -5.34,296.16 "/>
    <polygon id="46" fill="#55C17C" points="192.92,205.49 -4.77,297.38 -7.48,291.19 "/>
    <polygon id="47" fill="#55C07A" points="192.92,205.49 -6.93,292.43 -9.49,286.18 "/>
    <polygon id="48" fill="#55C078" points="192.92,205.49 -8.98,287.43 -11.38,281.12 "/>
    <polygon id="49" fill="#55BF75" points="192.92,205.49 -10.9,282.38 -13.15,276.01 "/>
    <polygon id="50" fill="#55BE73" points="192.92,205.49 -12.7,277.28 -14.79,270.86 "/>
    <polygon id="51" fill="#55BE71" points="192.92,205.49 -14.37,272.14 -16.31,265.67 "/>
    <polygon id="52" fill="#55BD6E" points="192.92,205.49 -15.92,266.97 -17.7,260.44 "/>
    <polygon id="53" fill="#56BD6C" points="192.92,205.49 -17.34,261.75 -18.96,255.18 "/>
    <polygon id="54" fill="#56BC6A" points="192.92,205.49 -18.64,256.5 -20.1,249.89 "/>
    <polygon id="55" fill="#56BB67" points="192.92,205.49 -19.81,251.21 -21.11,244.58 "/>
    <polygon id="56" fill="#56BB65" points="192.92,205.49 -20.85,245.91 -21.99,239.24 "/>
    <polygon id="57" fill="#56BA62" points="192.92,205.49 -21.76,240.57 -22.74,233.88 "/>
    <polygon id="58" fill="#56B960" points="192.92,205.49 -22.54,235.22 -23.36,228.5 "/>
    <polygon id="59" fill="#56B95D" points="192.92,205.49 -23.2,229.85 -23.85,223.11 "/>
    <polygon id="60" fill="#57B85A" points="192.92,205.49 -23.72,224.46 -24.21,217.71 "/>
    <polygon id="61" fill="#57B758" points="192.92,205.49 -24.11,219.06 -24.44,212.3 "/>
    <polygon id="62" fill="#57B755" points="192.92,205.49 -24.37,213.65 -24.54,206.89 "/>
    <polygon id="63" fill="#58B653" points="192.92,205.49 -24.51,208.24 -24.51,201.47 "/>
    <polygon id="64" fill="#5BB651" points="192.92,205.49 -24.51,202.83 -24.34,196.06 "/>
    <polygon id="65" fill="#5EB74F" points="192.92,205.49 -24.37,197.41 -24.05,190.66 "/>
    <polygon id="66" fill="#61B74E" points="192.92,205.49 -24.11,192.01 -23.62,185.26 "/>
    <polygon id="67" fill="#65B84C" points="192.92,205.49 -23.72,186.61 -23.07,179.87 "/>
    <polygon id="68" fill="#68B84B" points="192.92,205.49 -23.2,181.22 -22.38,174.5 "/>
    <polygon id="69" fill="#6BB849" points="192.92,205.49 -22.54,175.85 -21.57,169.16 "/>
    <polygon id="70" fill="#6EB948" points="192.92,205.49 -21.76,170.49 -20.62,163.83 "/>
    <polygon id="71" fill="#70B946" points="192.92,205.49 -20.85,165.16 -19.55,158.52 "/>
    <polygon id="72" fill="#73B945" points="192.92,205.49 -19.81,159.85 -18.35,153.25 "/>
    <polygon id="73" fill="#76BA44" points="192.92,205.49 -18.64,154.57 -17.02,148 "/>
    <polygon id="74" fill="#79BA42" points="192.92,205.49 -17.34,149.32 -15.56,142.79 "/>
    <polygon id="75" fill="#7CBA41" points="192.92,205.49 -15.92,144.1 -13.98,137.62 "/>
    <polygon id="76" fill="#7EBB3F" points="192.92,205.49 -14.37,138.92 -12.28,132.49 "/>
    <polygon id="77" fill="#81BB3E" points="192.92,205.49 -12.7,133.78 -10.45,127.41 "/>
    <polygon id="78" fill="#84BB3D" points="192.92,205.49 -10.9,128.68 -8.5,122.37 "/>
    <polygon id="79" fill="#86BC3C" points="192.92,205.49 -8.98,123.63 -6.42,117.38 "/>
    <polygon id="80" fill="#89BC3A" points="192.92,205.49 -6.93,118.63 -4.23,112.44 "/>
    <polygon id="81" fill="#8CBC39" points="192.92,205.49 -4.77,113.68 -1.92,107.56 "/>
    <polygon id="82" fill="#8EBD38" points="192.92,205.49 -2.49,108.78 0.51,102.74 "/>
    <polygon id="83" fill="#91BD37" points="192.92,205.49 -0.09,103.95 3.05,97.98 "/>
    <polygon id="84" fill="#93BD35" points="192.92,205.49 2.43,99.17 5.71,93.29 "/>
    <polygon id="85" fill="#95BD34" points="192.92,205.49 5.06,94.46 8.49,88.66 "/>
    <polygon id="86" fill="#98BE33" points="192.92,205.49 7.8,89.82 11.37,84.1 "/>
    <polygon id="87" fill="#9ABE32" points="192.92,205.49 10.66,85.24 14.36,79.62 "/>
    <polygon id="88" fill="#9CBE31" points="192.92,205.49 13.62,80.74 17.46,75.21 "/>
    <polygon id="89" fill="#9FBF30" points="192.92,205.49 16.69,76.32 20.67,70.88 "/>
    <polygon id="90" fill="#A1BF2E" points="192.92,205.49 19.87,71.97 23.98,66.63 "/>
    <polygon id="91" fill="#A3BF2D" points="192.92,205.49 23.16,67.7 27.39,62.47 "/>
    <polygon id="92" fill="#A5BF2C" points="192.92,205.49 26.54,63.51 30.9,58.39 "/>
    <polygon id="93" fill="#A8C02B" points="192.92,205.49 30.03,59.41 34.51,54.4 "/>
    <polygon id="94" fill="#AAC02A" points="192.92,205.49 33.61,55.4 38.21,50.5 "/>
    <polygon id="95" fill="#ACC029" points="192.92,205.49 37.29,51.48 42.01,46.69 "/>
    <polygon id="96" fill="#AEC028" points="192.92,205.49 41.06,47.65 45.9,42.98 "/>
    <polygon id="97" fill="#B0C127" points="192.92,205.49 44.93,43.92 49.87,39.37 "/>
    <polygon id="98" fill="#B2C126" points="192.92,205.49 48.88,40.28 53.94,35.86 "/>
    <polygon id="99" fill="#B5C125" points="192.92,205.49 52.92,36.74 58.08,32.45 "/>
    <polygon id="100" fill="#B7C124" points="192.92,205.49 57.05,33.31 62.31,29.14 "/>
    <polygon id="101" fill="#B9C223" points="192.92,205.49 61.26,29.98 66.62,25.94 "/>
    <polygon id="102" fill="#BBC221" points="192.92,205.49 65.54,26.75 71,22.85 "/>
    <polygon id="103" fill="#BEC220" points="192.92,205.49 69.91,23.63 75.45,19.87 "/>
    <polygon id="104" fill="#C0C31F" points="192.92,205.49 74.34,20.63 79.98,17 "/>
    <polygon id="105" fill="#C2C31E" points="192.92,205.49 78.85,17.73 84.58,14.25 "/>
    <polygon id="106" fill="#C5C31D" points="192.92,205.49 83.43,14.94 89.24,11.61 "/>
    <polygon id="107" fill="#C7C31C" points="192.92,205.49 88.08,12.27 93.96,9.08 "/>
    <polygon id="108" fill="#CAC41A" points="192.92,205.49 92.78,9.72 98.74,6.68 "/>
    <polygon id="109" fill="#CCC419" points="192.92,205.49 97.55,7.29 103.58,4.39 "/>
    <polygon id="110" fill="#CFC418" points="192.92,205.49 102.37,4.97 108.47,2.23 "/>
    <polygon id="111" fill="#D2C516" points="192.92,205.49 107.25,2.77 113.42,0.18 "/>
    <polygon id="112" fill="#D4C515" points="192.92,205.49 112.18,0.7 118.41,-1.73 "/>
    <polygon id="113" fill="#D7C514" points="192.92,205.49 117.16,-1.25 123.44,-3.53 "/>
    <polygon id="114" fill="#DAC613" points="192.92,205.49 122.19,-3.07 128.52,-5.2 "/>
    <polygon id="115" fill="#DCC611" points="192.92,205.49 127.25,-4.77 133.64,-6.74 "/>
    <polygon id="116" fill="#DFC610" points="192.92,205.49 132.36,-6.34 138.79,-8.15 "/>
    <polygon id="117" fill="#E2C70E" points="192.92,205.49 137.5,-7.79 143.98,-9.43 "/>
    <polygon id="118" fill="#E5C70D" points="192.92,205.49 142.68,-9.1 149.19,-10.59 "/>
    <polygon id="119" fill="#E8C70C" points="192.92,205.49 147.89,-10.29 154.43,-11.61 "/>
    <polygon id="120" fill="#EBC80A" points="192.92,205.49 153.12,-11.35 159.7,-12.51 "/>
    <polygon id="121" fill="#EEC809" points="192.92,205.49 158.38,-12.27 164.98,-13.27 "/>
    <polygon id="122" fill="#F1C807" points="192.92,205.49 163.66,-13.07 170.28,-13.9 "/>
    <polygon id="123" fill="#F4C906" points="192.92,205.49 168.96,-13.73 175.6,-14.4 "/>
    <polygon id="124" fill="#F7C904" points="192.92,205.49 174.27,-14.27 180.92,-14.77 "/>
    <polygon id="125" fill="#FAC902" points="192.92,205.49 179.59,-14.67 186.25,-15 "/>
    <polygon id="126" fill="#FDCA01" points="192.92,205.49 184.92,-14.93 191.59,-15.1 "/>
    <polygon id="127" fill="#FFCA00" points="192.92,205.49 190.26,-15.07 196.93,-15.07 "/>
    <polygon id="128" fill="#FFC900" points="192.92,205.49 195.59,-15.07 202.26,-14.9 "/>
    <polygon id="129" fill="#FFC800" points="192.92,205.49 200.93,-14.94 207.59,-14.61 "/>
    <polygon id="130" fill="#FFC800" points="192.92,205.49 206.26,-14.67 212.91,-14.18 "/>
    <polygon id="131" fill="#FFC700" points="192.92,205.49 211.58,-14.27 218.22,-13.61 "/>
    <polygon id="132" fill="#FFC600" points="192.92,205.49 216.89,-13.75 223.51,-12.92 "/>
    <polygon id="133" fill="#FFC600" points="192.92,205.49 222.19,-13.08 228.79,-12.09 "/>
    <polygon id="134" fill="#FFC500" points="192.92,205.49 227.47,-12.29 234.04,-11.14 "/>
    <polygon id="135" fill="#FFC500" points="192.92,205.49 232.73,-11.37 239.27,-10.05 "/>
    <polygon id="136" fill="#FFC400" points="192.92,205.49 237.96,-10.31 244.47,-8.83 "/>
    <polygon id="137" fill="#FFC400" points="192.92,205.49 243.17,-9.13 249.64,-7.48 "/>
    <polygon id="138" fill="#FFC300" points="192.92,205.49 248.35,-7.81 254.77,-6.01 "/>
    <polygon id="139" fill="#FFC200" points="192.92,205.49 253.49,-6.37 259.87,-4.41 "/>
    <polygon id="140" fill="#FFC200" points="192.92,205.49 258.6,-4.8 264.93,-2.68 "/>
    <polygon id="141" fill="#FFC100" points="192.92,205.49 263.66,-3.1 269.95,-0.82 "/>
    <polygon id="142" fill="#FFC100" points="192.92,205.49 268.69,-1.28 274.91,1.16 "/>
    <polygon id="143" fill="#FFC000" points="192.92,205.49 273.67,0.67 279.83,3.26 "/>
    <polygon id="144" fill="#FFC000" points="192.92,205.49 278.6,2.74 284.7,5.48 "/>
    <polygon id="145" fill="#FFBF00" points="192.92,205.49 283.48,4.93 289.51,7.82 "/>
    <polygon id="146" fill="#FFBF00" points="192.92,205.49 288.3,7.24 294.26,10.29 "/>
    <polygon id="147" fill="#FFBE00" points="192.92,205.49 293.07,9.68 298.95,12.87 "/>
    <polygon id="148" fill="#FFBE00" points="192.92,205.49 297.77,12.23 303.58,15.56 "/>
    <polygon id="149" fill="#FFBD00" points="192.92,205.49 302.42,14.9 308.14,18.37 "/>
    <polygon id="150" fill="#FFBD00" points="192.92,205.49 307,17.68 312.63,21.3 "/>
    <polygon id="151" fill="#FFBC00" points="192.92,205.49 311.51,20.57 317.05,24.33 "/>
    <polygon id="152" fill="#FFBC00" points="192.92,205.49 315.94,23.58 321.4,27.48 "/>
    <polygon id="153" fill="#FFBB00" points="192.92,205.49 320.31,26.7 325.66,30.73 "/>
    <polygon id="154" fill="#FFBB00" points="192.92,205.49 324.59,29.92 329.85,34.08 "/>
    <polygon id="155" fill="#FFBA00" points="192.92,205.49 328.8,33.25 333.96,37.54 "/>
    <polygon id="156" fill="#FFBA00" points="192.92,205.49 332.92,36.68 337.98,41.1 "/>
    <polygon id="157" fill="#FFBA00" points="192.92,205.49 336.97,40.22 341.91,44.76 "/>
    <polygon id="158" fill="#FFB900" points="192.92,205.49 340.92,43.85 345.75,48.52 "/>
    <polygon id="159" fill="#FEB900" points="192.92,205.49 344.79,47.58 349.5,52.37 "/>
    <polygon id="160" fill="#FEB800" points="192.92,205.49 348.56,51.41 353.16,56.31 "/>
    <polygon id="161" fill="#FEB800" points="192.92,205.49 352.24,55.33 356.72,60.34 "/>
    <polygon id="162" fill="#FEB700" points="192.92,205.49 355.82,59.34 360.18,64.47 "/>
    <polygon id="163" fill="#FEB700" points="192.92,205.49 359.31,63.44 363.54,68.67 "/>
    <polygon id="164" fill="#FEB700" points="192.92,205.49 362.7,67.62 366.8,72.96 "/>
    <polygon id="165" fill="#FEB600" points="192.92,205.49 365.98,71.89 369.95,77.33 "/>
    <polygon id="166" fill="#FEB600" points="192.92,205.49 369.16,76.24 373,81.77 "/>
    <polygon id="167" fill="#FEB500" points="192.92,205.49 372.23,80.66 375.94,86.29 "/>
    <polygon id="168" fill="#FEB500" points="192.92,205.49 375.2,85.16 378.77,90.88 "/>
    <polygon id="169" fill="#FEB400" points="192.92,205.49 378.05,89.74 381.48,95.54 "/>
    <polygon id="170" fill="#FEB400" points="192.92,205.49 380.79,94.38 384.08,100.27 "/>
    <polygon id="171" fill="#FEB300" points="192.92,205.49 383.42,99.09 386.57,105.06 "/>
    <polygon id="172" fill="#FEB300" points="192.92,205.49 385.94,103.86 388.94,109.91 "/>
    <polygon id="173" fill="#FEB200" points="192.92,205.49 388.34,108.7 391.19,114.82 "/>
    <polygon id="174" fill="#FEB200" points="192.92,205.49 390.62,113.59 393.33,119.78 "/>
    <polygon id="175" fill="#FEB100" points="192.92,205.49 392.78,118.54 395.34,124.79 "/>
    <polygon id="176" fill="#FEB100" points="192.92,205.49 394.83,123.54 397.23,129.85 "/>
    <polygon id="177" fill="#FEB000" points="192.92,205.49 396.75,128.59 399,134.96 "/>
    <polygon id="178" fill="#FEAF00" points="192.92,205.49 398.55,133.69 400.64,140.11 "/>
    <polygon id="179" fill="#FEAF00" points="192.92,205.49 400.22,138.83 402.16,145.3 "/>
    <polygon id="180" fill="#FEAE00" points="192.92,205.49 401.77,144.01 403.55,150.53 "/>
    <polygon id="181" fill="#FEAE00" points="192.92,205.49 403.19,149.22 404.81,155.79 "/>
    <polygon id="182" fill="#FEAD00" points="192.92,205.49 404.49,154.47 405.95,161.08 "/>
    <polygon id="183" fill="#FEAD00" points="192.92,205.49 405.66,159.76 406.96,166.39 "/>
    <polygon id="184" fill="#FEAC00" points="192.92,205.49 406.7,165.07 407.84,171.73 "/>
    <polygon id="185" fill="#FEAB00" points="192.92,205.49 407.61,170.4 408.59,177.09 "/>
    <polygon id="186" fill="#FEAB00" points="192.92,205.49 408.4,175.76 409.21,182.47 "/>
    <polygon id="187" fill="#FEAA00" points="192.92,205.49 409.05,181.13 409.7,187.86 "/>
    <polygon id="188" fill="#FEA900" points="192.92,205.49 409.57,186.51 410.06,193.26 "/>
    <polygon id="189" fill="#FEA900" points="192.92,205.49 409.97,191.91 410.29,198.67 "/>
    <polygon id="190" fill="#FEA800" points="192.92,205.49 410.23,197.32 410.39,204.08 "/>
    <polygon id="191" fill="#FEA700" points="192.92,205.49 410.36,202.73 410.36,209.5 "/>
    <polygon id="192" fill="#FEA601" points="192.92,205.49 410.36,208.15 410.19,214.91 "/>
    <polygon id="193" fill="#FEA401" points="192.92,205.49 410.23,213.56 409.9,220.32 "/>
    <polygon id="194" fill="#FEA302" points="192.92,205.49 409.97,218.96 409.47,225.71 "/>
    <polygon id="195" fill="#FEA103" points="192.92,205.49 409.57,224.36 408.92,231.1 "/>
    <polygon id="196" fill="#FEA003" points="192.92,205.49 409.05,229.75 408.23,236.47 "/>
    <polygon id="197" fill="#FE9F04" points="192.92,205.49 408.4,235.12 407.42,241.82 "/>
    <polygon id="198" fill="#FE9D04" points="192.92,205.49 407.61,240.48 406.47,247.15 "/>
    <polygon id="199" fill="#FE9C04" points="192.92,205.49 406.7,245.81 405.4,252.45 "/>
    <polygon id="200" fill="#FE9B05" points="192.92,205.49 405.66,251.12 404.2,257.73 "/>
    <polygon id="201" fill="#FE9A05" points="192.92,205.49 404.49,256.41 402.87,262.97 "/>
    <polygon id="202" fill="#FE9806" points="192.92,205.49 403.19,261.66 401.41,268.18 "/>
    <polygon id="203" fill="#FE9706" points="192.92,205.49 401.77,266.87 399.83,273.35 "/>
    <polygon id="204" fill="#FE9607" points="192.92,205.49 400.22,272.05 398.13,278.48 "/>
    <polygon id="205" fill="#FE9507" points="192.92,205.49 398.55,277.2 396.3,283.57 "/>
    <polygon id="206" fill="#FE9408" points="192.92,205.49 396.75,282.29 394.35,288.61 "/>
    <polygon id="207" fill="#FE9308" points="192.92,205.49 394.83,287.34 392.27,293.6 "/>
    <polygon id="208" fill="#FE9109" points="192.92,205.49 392.78,292.35 390.08,298.53 "/>
    <polygon id="209" fill="#FE9009" points="192.92,205.49 390.62,297.3 387.77,303.41 "/>
    <polygon id="210" fill="#FE8F09" points="192.92,205.49 388.34,302.19 385.34,308.23 "/>
    <polygon id="211" fill="#FE8E0A" points="192.92,205.49 385.94,307.03 382.8,312.99 "/>
    <polygon id="212" fill="#FE8D0A" points="192.92,205.49 383.42,311.8 380.14,317.69 "/>
    <polygon id="213" fill="#FE8C0B" points="192.92,205.49 380.79,316.51 377.37,322.32 "/>
    <polygon id="214" fill="#FE8B0B" points="192.92,205.49 378.05,321.16 374.48,326.87 "/>
    <polygon id="215" fill="#FE8A0B" points="192.92,205.49 375.2,325.73 371.49,331.36 "/>
    <polygon id="216" fill="#FE890C" points="192.92,205.49 372.23,330.23 368.39,335.77 "/>
    <polygon id="217" fill="#FE880C" points="192.92,205.49 369.16,334.66 365.18,340.09 "/>
    <polygon id="218" fill="#FE870D" points="192.92,205.49 365.98,339.01 361.87,344.34 "/>
    <polygon id="219" fill="#FE860D" points="192.92,205.49 362.7,343.28 358.46,348.51 "/>
    <polygon id="220" fill="#FE850D" points="192.92,205.49 359.31,347.46 354.95,352.59 "/>
    <polygon id="221" fill="#FE840E" points="192.92,205.49 355.82,351.56 351.34,356.58 "/>
    <polygon id="222" fill="#FE830E" points="192.92,205.49 352.24,355.57 347.64,360.47 "/>
    <polygon id="223" fill="#FF820E" points="192.92,205.49 348.56,359.49 343.84,364.28 "/>
    <polygon id="224" fill="#FF810F" points="192.92,205.49 344.79,363.32 339.95,367.99 "/>
    <polygon id="225" fill="#FF800F" points="192.92,205.49 340.92,367.06 335.98,371.6 "/>
    <polygon id="226" fill="#FF7F0F" points="192.92,205.49 336.97,370.69 331.92,375.11 "/>
    <polygon id="227" fill="#FF7E10" points="192.92,205.49 332.92,374.23 327.77,378.52 "/>
    <polygon id="228" fill="#FF7D10" points="192.92,205.49 328.8,377.66 323.54,381.83 "/>
    <polygon id="229" fill="#FF7C11" points="192.92,205.49 324.59,381 319.23,385.03 "/>
    <polygon id="230" fill="#FF7B11" points="192.92,205.49 320.31,384.22 314.85,388.12 "/>
    <polygon id="231" fill="#FF7A11" points="192.92,205.49 315.94,387.34 310.39,391.1 "/>
    <polygon id="232" fill="#FF7912" points="192.92,205.49 311.51,390.35 305.87,393.97 "/>
    <polygon id="233" fill="#FF7812" points="192.92,205.49 307,393.25 301.27,396.72 "/>
    <polygon id="234" fill="#FF7713" points="192.92,205.49 302.42,396.03 296.61,399.37 "/>
    <polygon id="235" fill="#FF7613" points="192.92,205.49 297.77,398.7 291.89,401.89 "/>
    <polygon id="236" fill="#FF7513" points="192.92,205.49 293.07,401.25 287.11,404.3 "/>
    <polygon id="237" fill="#FF7414" points="192.92,205.49 288.3,403.69 282.27,406.58 "/>
    <polygon id="238" fill="#FF7314" points="192.92,205.49 283.48,406 277.38,408.75 "/>
    <polygon id="239" fill="#FF7115" points="192.92,205.49 278.6,408.2 272.43,410.79 "/>
    <polygon id="240" fill="#FF7015" points="192.92,205.49 273.67,410.27 267.44,412.71 "/>
    <polygon id="241" fill="#FF6F16" points="192.92,205.49 268.69,412.22 262.41,414.5 "/>
    <polygon id="242" fill="#FF6E16" points="192.92,205.49 263.66,414.04 257.33,416.17 "/>
    <polygon id="243" fill="#FF6D16" points="192.92,205.49 258.6,415.74 252.21,417.71 "/>
    <polygon id="244" fill="#FF6B17" points="192.92,205.49 253.49,417.32 247.06,419.12 "/>
    <polygon id="245" fill="#FF6A17" points="192.92,205.49 248.35,418.76 241.87,420.41 "/>
    <polygon id="246" fill="#FF6918" points="192.92,205.49 243.17,420.08 236.66,421.56 "/>
    <polygon id="247" fill="#FF6818" points="192.92,205.49 237.96,421.26 231.42,422.59 "/>
    <polygon id="248" fill="#FF6619" points="192.92,205.49 232.73,422.32 226.15,423.48 "/>
    <polygon id="249" fill="#FF6519" points="192.92,205.49 227.47,423.25 220.87,424.24 "/>
    <polygon id="250" fill="#FF641A" points="192.92,205.49 222.19,424.04 215.57,424.87 "/>
    <polygon id="251" fill="#FF621A" points="192.92,205.49 216.89,424.71 210.25,425.37 "/>
    <polygon id="252" fill="#FF611B" points="192.92,205.49 211.58,425.24 204.93,425.74 "/>
    <polygon id="253" fill="#FF5F1B" points="192.92,205.49 206.26,425.64 199.6,425.97 "/>
    <polygon id="254" fill="#FF5E1C" points="192.92,205.49 200.93,425.91 194.26,426.07 "/>
    <polygon id="255" fill="#4FDCE5" points="192.92,205.49 195.59,426.04 190.26,426.04 "/>
   </g>
  </g>
 </g>
</svg>
