<svg xmlns="http://www.w3.org/2000/svg" width="512px" height="512px" version="1.1" shape-rendering="geometricPrecision" text-rendering="geometricPrecision" image-rendering="optimizeQuality" fill-rule="evenodd" clip-rule="evenodd"
viewBox="0 0 626.16 626.16"
 xmlns:xlink="http://www.w3.org/1999/xlink">
 <defs>
    <linearGradient id="id0" gradientUnits="userSpaceOnUse" x1="420.5" y1="612.28" x2="205.66" y2="13.87">
     <stop offset="0" stop-opacity="1" stop-color="#F1F6FA"/>
     <stop offset="1" stop-opacity="1" stop-color="white"/>
    </linearGradient>
     <clipPath id="id1">
      <path d="M313.08 85.83c138.2,0 250.25,113.38 250.25,253.23 0,82.06 -38.59,155 -98.39,201.26l-70.42 -93.33c32.07,-24.82 52.76,-63.93 52.76,-107.93 0,-75 -60.09,-135.79 -134.2,-135.79 -74.12,0 -134.2,60.79 -134.2,135.79 0,44 20.69,83.11 52.76,107.93l-70.42 93.33c-59.8,-46.26 -98.39,-119.2 -98.39,-201.26 0,-139.85 112.04,-253.23 250.25,-253.23z"/>
     </clipPath>
 </defs>
 <g id="Layer_x0020_1">
  <metadata id="CorelCorpID_0Corel-Layer"/>
  <g id="_890471408">
   <rect fill="url(#id0)" width="626.16" height="626.16" rx="44.01" ry="55.54"/>
   <g>
    <g clip-path="url(#id1)">
     <polygon fill="#4FDBE2" points="323.09,344.12 320.85,713.54 307.45,713.21 "/>
     <polygon id="1" fill="#4FDADF" points="323.09,344.12 309.69,713.26 298.53,712.71 "/>
     <polygon id="2" fill="#4FDADC" points="323.09,344.12 300.76,712.82 289.62,711.99 "/>
     <polygon id="3" fill="#50D9DA" points="323.09,344.12 291.85,712.15 280.73,711.04 "/>
     <polygon id="4" fill="#50D8D7" points="323.09,344.12 282.95,711.27 271.86,709.88 "/>
     <polygon id="5" fill="#50D8D4" points="323.09,344.12 274.08,710.16 263.03,708.5 "/>
     <polygon id="6" fill="#50D7D1" points="323.09,344.12 265.24,708.83 254.23,706.89 "/>
     <polygon id="7" fill="#50D6CF" points="323.09,344.12 256.43,707.28 245.48,705.07 "/>
     <polygon id="8" fill="#50D6CC" points="323.09,344.12 247.67,705.51 236.77,703.03 "/>
     <polygon id="9" fill="#50D5CA" points="323.09,344.12 238.95,703.53 228.11,700.78 "/>
     <polygon id="10" fill="#51D4C7" points="323.09,344.12 230.28,701.33 219.51,698.31 "/>
     <polygon id="11" fill="#51D4C5" points="323.09,344.12 221.66,698.91 210.97,695.63 "/>
     <polygon id="12" fill="#51D3C2" points="323.09,344.12 213.11,696.28 202.5,692.73 "/>
     <polygon id="13" fill="#51D2C0" points="323.09,344.12 204.63,693.44 194.11,689.63 "/>
     <polygon id="14" fill="#51D2BE" points="323.09,344.12 196.21,690.39 185.79,686.31 "/>
     <polygon id="15" fill="#51D1BB" points="323.09,344.12 187.87,687.13 177.55,682.79 "/>
     <polygon id="16" fill="#51D1B9" points="323.09,344.12 179.61,683.66 169.4,679.07 "/>
     <polygon id="17" fill="#52D0B7" points="323.09,344.12 171.44,679.99 161.34,675.15 "/>
     <polygon id="18" fill="#52CFB5" points="323.09,344.12 163.37,676.11 153.39,671.02 "/>
     <polygon id="19" fill="#52CFB2" points="323.09,344.12 155.38,672.04 145.53,666.7 "/>
     <polygon id="20" fill="#52CEB0" points="323.09,344.12 147.5,667.77 137.78,662.18 "/>
     <polygon id="21" fill="#52CEAE" points="323.09,344.12 139.72,663.3 130.14,657.48 "/>
     <polygon id="22" fill="#52CDAC" points="323.09,344.12 132.06,658.64 122.62,652.58 "/>
     <polygon id="23" fill="#52CDAA" points="323.09,344.12 124.51,653.79 115.22,647.5 "/>
     <polygon id="24" fill="#52CCA8" points="323.09,344.12 117.07,648.76 107.94,642.24 "/>
     <polygon id="25" fill="#52CCA6" points="323.09,344.12 109.77,643.54 100.79,636.79 "/>
     <polygon id="26" fill="#53CBA4" points="323.09,344.12 102.59,638.14 93.78,631.17 "/>
     <polygon id="27" fill="#53CBA2" points="323.09,344.12 95.54,632.56 86.91,625.38 "/>
     <polygon id="28" fill="#53CAA0" points="323.09,344.12 88.64,626.82 80.18,619.41 "/>
     <polygon id="29" fill="#53CA9E" points="323.09,344.12 81.87,620.9 73.59,613.29 "/>
     <polygon id="30" fill="#53C99C" points="323.09,344.12 75.25,614.81 67.15,607 "/>
     <polygon id="31" fill="#53C99B" points="323.09,344.12 68.77,608.56 60.87,600.55 "/>
     <polygon id="32" fill="#53C899" points="323.09,344.12 62.45,602.15 54.75,593.94 "/>
     <polygon id="33" fill="#53C897" points="323.09,344.12 56.29,595.59 48.79,587.19 "/>
     <polygon id="34" fill="#53C795" points="323.09,344.12 50.29,588.87 42.99,580.29 "/>
     <polygon id="35" fill="#53C793" points="323.09,344.12 44.45,582.01 37.36,573.25 "/>
     <polygon id="36" fill="#54C691" points="323.09,344.12 38.78,575 31.91,566.07 "/>
     <polygon id="37" fill="#54C68F" points="323.09,344.12 33.28,567.85 26.63,558.75 "/>
     <polygon id="38" fill="#54C58D" points="323.09,344.12 27.96,560.57 21.52,551.31 "/>
     <polygon id="39" fill="#54C58B" points="323.09,344.12 22.81,553.16 16.6,543.74 "/>
     <polygon id="40" fill="#54C489" points="323.09,344.12 17.85,545.63 11.87,536.05 "/>
     <polygon id="41" fill="#54C487" points="323.09,344.12 13.06,537.97 7.32,528.25 "/>
     <polygon id="42" fill="#54C385" points="323.09,344.12 8.47,530.19 2.96,520.33 "/>
     <polygon id="43" fill="#54C283" points="323.09,344.12 4.06,522.3 -1.2,512.31 "/>
     <polygon id="44" fill="#55C281" points="323.09,344.12 -0.15,514.31 -5.17,504.19 "/>
     <polygon id="45" fill="#55C17E" points="323.09,344.12 -4.17,506.21 -8.94,495.97 "/>
     <polygon id="46" fill="#55C17C" points="323.09,344.12 -7.99,498.02 -12.52,487.66 "/>
     <polygon id="47" fill="#55C07A" points="323.09,344.12 -11.61,489.73 -15.89,479.26 "/>
     <polygon id="48" fill="#55C078" points="323.09,344.12 -15.03,481.36 -19.05,470.78 "/>
     <polygon id="49" fill="#55BF75" points="323.09,344.12 -18.25,472.9 -22.01,462.23 "/>
     <polygon id="50" fill="#55BE73" points="323.09,344.12 -21.26,464.36 -24.76,453.6 "/>
     <polygon id="51" fill="#55BE71" points="323.09,344.12 -24.06,455.76 -27.3,444.91 "/>
     <polygon id="52" fill="#55BD6E" points="323.09,344.12 -26.66,447.08 -29.64,436.16 "/>
     <polygon id="53" fill="#56BD6C" points="323.09,344.12 -29.04,438.34 -31.75,427.35 "/>
     <polygon id="54" fill="#56BC6A" points="323.09,344.12 -31.21,429.55 -33.66,418.49 "/>
     <polygon id="55" fill="#56BB67" points="323.09,344.12 -33.17,420.71 -35.35,409.59 "/>
     <polygon id="56" fill="#56BB65" points="323.09,344.12 -34.91,411.81 -36.82,400.65 "/>
     <polygon id="57" fill="#56BA62" points="323.09,344.12 -36.44,402.88 -38.08,391.67 "/>
     <polygon id="58" fill="#56B960" points="323.09,344.12 -37.75,393.92 -39.12,382.67 "/>
     <polygon id="59" fill="#56B95D" points="323.09,344.12 -38.85,384.92 -39.94,373.64 "/>
     <polygon id="60" fill="#57B85A" points="323.09,344.12 -39.72,375.9 -40.54,364.59 "/>
     <polygon id="61" fill="#57B758" points="323.09,344.12 -40.38,366.86 -40.93,355.54 "/>
     <polygon id="62" fill="#57B755" points="323.09,344.12 -40.82,357.8 -41.09,346.47 "/>
     <polygon id="63" fill="#58B653" points="323.09,344.12 -41.04,348.74 -41.04,337.4 "/>
     <polygon id="64" fill="#5BB651" points="323.09,344.12 -41.04,339.67 -40.76,328.34 "/>
     <polygon id="65" fill="#5EB74F" points="323.09,344.12 -40.82,330.61 -40.27,319.29 "/>
     <polygon id="66" fill="#61B74E" points="323.09,344.12 -40.38,321.55 -39.56,310.25 "/>
     <polygon id="67" fill="#65B84C" points="323.09,344.12 -39.72,312.51 -38.63,301.23 "/>
     <polygon id="68" fill="#68B84B" points="323.09,344.12 -38.85,303.49 -37.48,292.24 "/>
     <polygon id="69" fill="#6BB849" points="323.09,344.12 -37.75,294.49 -36.11,283.28 "/>
     <polygon id="70" fill="#6EB948" points="323.09,344.12 -36.44,285.52 -34.53,274.36 "/>
     <polygon id="71" fill="#70B946" points="323.09,344.12 -34.91,276.59 -32.73,265.48 "/>
     <polygon id="72" fill="#73B945" points="323.09,344.12 -33.17,267.7 -30.72,256.64 "/>
     <polygon id="73" fill="#76BA44" points="323.09,344.12 -31.21,258.85 -28.5,247.86 "/>
     <polygon id="74" fill="#79BA42" points="323.09,344.12 -29.04,250.06 -26.06,239.14 "/>
     <polygon id="75" fill="#7CBA41" points="323.09,344.12 -26.66,241.32 -23.41,230.48 "/>
     <polygon id="76" fill="#7EBB3F" points="323.09,344.12 -24.06,232.64 -20.56,221.88 "/>
     <polygon id="77" fill="#81BB3E" points="323.09,344.12 -21.26,224.04 -17.5,213.36 "/>
     <polygon id="78" fill="#84BB3D" points="323.09,344.12 -18.25,215.5 -14.23,204.92 "/>
     <polygon id="79" fill="#86BC3C" points="323.09,344.12 -15.03,207.04 -10.76,196.57 "/>
     <polygon id="80" fill="#89BC3A" points="323.09,344.12 -11.61,198.66 -7.08,188.3 "/>
     <polygon id="81" fill="#8CBC39" points="323.09,344.12 -7.99,190.37 -3.21,180.13 "/>
     <polygon id="82" fill="#8EBD38" points="323.09,344.12 -4.17,182.18 0.86,172.05 "/>
     <polygon id="83" fill="#91BD37" points="323.09,344.12 -0.15,174.08 5.12,164.08 "/>
     <polygon id="84" fill="#93BD35" points="323.09,344.12 4.06,166.08 9.57,156.22 "/>
     <polygon id="85" fill="#95BD34" points="323.09,344.12 8.47,158.2 14.21,148.47 "/>
     <polygon id="86" fill="#98BE33" points="323.09,344.12 13.06,150.42 19.04,140.84 "/>
     <polygon id="87" fill="#9ABE32" points="323.09,344.12 17.85,142.76 24.05,133.33 "/>
     <polygon id="88" fill="#9CBE31" points="323.09,344.12 22.81,135.22 29.24,125.95 "/>
     <polygon id="89" fill="#9FBF30" points="323.09,344.12 27.96,127.81 34.61,118.7 "/>
     <polygon id="90" fill="#A1BF2E" points="323.09,344.12 33.28,120.52 40.16,111.59 "/>
     <polygon id="91" fill="#A3BF2D" points="323.09,344.12 38.78,113.37 45.87,104.61 "/>
     <polygon id="92" fill="#A5BF2C" points="323.09,344.12 44.45,106.36 51.75,97.78 "/>
     <polygon id="93" fill="#A8C02B" points="323.09,344.12 50.29,99.5 57.79,91.1 "/>
     <polygon id="94" fill="#AAC02A" points="323.09,344.12 56.29,92.78 63.99,84.57 "/>
     <polygon id="95" fill="#ACC029" points="323.09,344.12 62.45,86.21 70.35,78.2 "/>
     <polygon id="96" fill="#AEC028" points="323.09,344.12 68.77,79.8 76.86,71.99 "/>
     <polygon id="97" fill="#B0C127" points="323.09,344.12 75.25,73.55 83.52,65.94 "/>
     <polygon id="98" fill="#B2C126" points="323.09,344.12 81.87,67.46 90.33,60.06 "/>
     <polygon id="99" fill="#B5C125" points="323.09,344.12 88.64,61.54 97.27,54.34 "/>
     <polygon id="100" fill="#B7C124" points="323.09,344.12 95.54,55.78 104.35,48.81 "/>
     <polygon id="101" fill="#B9C223" points="323.09,344.12 102.59,50.2 111.56,43.45 "/>
     <polygon id="102" fill="#BBC221" points="323.09,344.12 109.77,44.8 118.9,38.27 "/>
     <polygon id="103" fill="#BEC220" points="323.09,344.12 117.07,39.58 126.36,33.28 "/>
     <polygon id="104" fill="#C0C31F" points="323.09,344.12 124.51,34.54 133.94,28.48 "/>
     <polygon id="105" fill="#C2C31E" points="323.09,344.12 132.06,29.69 141.64,23.86 "/>
     <polygon id="106" fill="#C5C31D" points="323.09,344.12 139.72,25.03 149.44,19.44 "/>
     <polygon id="107" fill="#C7C31C" points="323.09,344.12 147.5,20.56 157.35,15.21 "/>
     <polygon id="108" fill="#CAC41A" points="323.09,344.12 155.38,16.28 165.36,11.18 "/>
     <polygon id="109" fill="#CCC419" points="323.09,344.12 163.37,12.2 173.46,7.36 "/>
     <polygon id="110" fill="#CFC418" points="323.09,344.12 171.44,8.33 181.66,3.73 "/>
     <polygon id="111" fill="#D2C516" points="323.09,344.12 179.61,4.65 189.94,0.31 "/>
     <polygon id="112" fill="#D4C515" points="323.09,344.12 187.87,1.18 198.3,-2.9 "/>
     <polygon id="113" fill="#D7C514" points="323.09,344.12 196.21,-2.08 206.73,-5.9 "/>
     <polygon id="114" fill="#DAC613" points="323.09,344.12 204.63,-5.14 215.23,-8.7 "/>
     <polygon id="115" fill="#DCC611" points="323.09,344.12 213.11,-7.99 223.8,-11.28 "/>
     <polygon id="116" fill="#DFC610" points="323.09,344.12 221.66,-10.62 232.43,-13.64 "/>
     <polygon id="117" fill="#E2C70E" points="323.09,344.12 230.28,-13.04 241.12,-15.79 "/>
     <polygon id="118" fill="#E5C70D" points="323.09,344.12 238.95,-15.24 249.85,-17.73 "/>
     <polygon id="119" fill="#E8C70C" points="323.09,344.12 247.67,-17.23 258.63,-19.45 "/>
     <polygon id="120" fill="#EBC80A" points="323.09,344.12 256.43,-19 267.44,-20.94 "/>
     <polygon id="121" fill="#EEC809" points="323.09,344.12 265.24,-20.55 276.29,-22.22 "/>
     <polygon id="122" fill="#F1C807" points="323.09,344.12 274.08,-21.89 285.17,-23.28 "/>
     <polygon id="123" fill="#F4C906" points="323.09,344.12 282.95,-23 294.07,-24.11 "/>
     <polygon id="124" fill="#F7C904" points="323.09,344.12 291.85,-23.89 302.99,-24.73 "/>
     <polygon id="125" fill="#FAC902" points="323.09,344.12 300.76,-24.56 311.92,-25.12 "/>
     <polygon id="126" fill="#FDCA01" points="323.09,344.12 309.69,-25 320.85,-25.28 "/>
     <polygon id="127" fill="#FFCA00" points="323.09,344.12 318.62,-25.23 329.79,-25.23 "/>
     <polygon id="128" fill="#FFC900" points="323.09,344.12 327.56,-25.23 338.73,-24.96 "/>
     <polygon id="129" fill="#FFC800" points="323.09,344.12 336.49,-25.01 347.65,-24.46 "/>
     <polygon id="130" fill="#FFC800" points="323.09,344.12 345.42,-24.57 356.56,-23.74 "/>
     <polygon id="131" fill="#FFC700" points="323.09,344.12 354.33,-23.9 365.45,-22.79 "/>
     <polygon id="132" fill="#FFC600" points="323.09,344.12 363.23,-23.02 374.32,-21.63 "/>
     <polygon id="133" fill="#FFC600" points="323.09,344.12 372.1,-21.91 383.15,-20.25 "/>
     <polygon id="134" fill="#FFC500" points="323.09,344.12 380.94,-20.58 391.95,-18.64 "/>
     <polygon id="135" fill="#FFC500" points="323.09,344.12 389.74,-19.03 400.7,-16.82 "/>
     <polygon id="136" fill="#FFC400" points="323.09,344.12 398.51,-17.27 409.41,-14.79 "/>
     <polygon id="137" fill="#FFC400" points="323.09,344.12 407.23,-15.28 418.07,-12.53 "/>
     <polygon id="138" fill="#FFC300" points="323.09,344.12 415.9,-13.08 426.67,-10.06 "/>
     <polygon id="139" fill="#FFC200" points="323.09,344.12 424.51,-10.66 435.2,-7.38 "/>
     <polygon id="140" fill="#FFC200" points="323.09,344.12 433.07,-8.03 443.67,-4.48 "/>
     <polygon id="141" fill="#FFC100" points="323.09,344.12 441.55,-5.19 452.07,-1.38 "/>
     <polygon id="142" fill="#FFC100" points="323.09,344.12 449.97,-2.14 460.39,1.94 "/>
     <polygon id="143" fill="#FFC000" points="323.09,344.12 458.31,1.12 468.63,5.46 "/>
     <polygon id="144" fill="#FFC000" points="323.09,344.12 466.56,4.59 476.78,9.18 "/>
     <polygon id="145" fill="#FFBF00" points="323.09,344.12 474.73,8.26 484.83,13.1 "/>
     <polygon id="146" fill="#FFBF00" points="323.09,344.12 482.81,12.13 492.79,17.23 "/>
     <polygon id="147" fill="#FFBE00" points="323.09,344.12 490.8,16.21 500.65,21.55 "/>
     <polygon id="148" fill="#FFBE00" points="323.09,344.12 498.68,20.48 508.4,26.06 "/>
     <polygon id="149" fill="#FFBD00" points="323.09,344.12 506.45,24.95 516.04,30.77 "/>
     <polygon id="150" fill="#FFBD00" points="323.09,344.12 514.12,29.61 523.56,35.67 "/>
     <polygon id="151" fill="#FFBC00" points="323.09,344.12 521.67,34.46 530.96,40.75 "/>
     <polygon id="152" fill="#FFBC00" points="323.09,344.12 529.1,39.49 538.24,46.01 "/>
     <polygon id="153" fill="#FFBB00" points="323.09,344.12 536.41,44.71 545.38,51.46 "/>
     <polygon id="154" fill="#FFBB00" points="323.09,344.12 543.59,50.11 552.4,57.08 "/>
     <polygon id="155" fill="#FFBA00" points="323.09,344.12 550.63,55.68 559.27,62.87 "/>
     <polygon id="156" fill="#FFBA00" points="323.09,344.12 557.54,61.43 566,68.83 "/>
     <polygon id="157" fill="#FFBA00" points="323.09,344.12 564.31,67.35 572.59,74.96 "/>
     <polygon id="158" fill="#FFB900" points="323.09,344.12 570.93,73.44 579.02,81.25 "/>
     <polygon id="159" fill="#FEB900" points="323.09,344.12 577.41,79.69 585.31,87.7 "/>
     <polygon id="160" fill="#FEB800" points="323.09,344.12 583.73,86.1 591.43,94.3 "/>
     <polygon id="161" fill="#FEB800" points="323.09,344.12 589.89,92.66 597.39,101.06 "/>
     <polygon id="162" fill="#FEB700" points="323.09,344.12 595.89,99.38 603.19,107.96 "/>
     <polygon id="163" fill="#FEB700" points="323.09,344.12 601.73,106.24 608.82,115 "/>
     <polygon id="164" fill="#FEB700" points="323.09,344.12 607.4,113.25 614.27,122.18 "/>
     <polygon id="165" fill="#FEB600" points="323.09,344.12 612.9,120.4 619.55,129.5 "/>
     <polygon id="166" fill="#FEB600" points="323.09,344.12 618.22,127.68 624.65,136.94 "/>
     <polygon id="167" fill="#FEB500" points="323.09,344.12 623.37,135.09 629.57,144.51 "/>
     <polygon id="168" fill="#FEB500" points="323.09,344.12 628.33,142.62 634.31,152.2 "/>
     <polygon id="169" fill="#FEB400" points="323.09,344.12 633.11,150.28 638.86,160 "/>
     <polygon id="170" fill="#FEB400" points="323.09,344.12 637.71,158.06 643.21,167.92 "/>
     <polygon id="171" fill="#FEB300" points="323.09,344.12 642.11,165.94 647.38,175.94 "/>
     <polygon id="172" fill="#FEB300" points="323.09,344.12 646.33,173.94 651.35,184.06 "/>
     <polygon id="173" fill="#FEB200" points="323.09,344.12 650.35,182.04 655.12,192.28 "/>
     <polygon id="174" fill="#FEB200" points="323.09,344.12 654.17,190.23 658.69,200.59 "/>
     <polygon id="175" fill="#FEB100" points="323.09,344.12 657.79,198.52 662.06,208.99 "/>
     <polygon id="176" fill="#FEB100" points="323.09,344.12 661.21,206.89 665.23,217.47 "/>
     <polygon id="177" fill="#FEB000" points="323.09,344.12 664.42,215.35 668.19,226.02 "/>
     <polygon id="178" fill="#FEAF00" points="323.09,344.12 667.44,223.89 670.94,234.65 "/>
     <polygon id="179" fill="#FEAF00" points="323.09,344.12 670.24,232.49 673.48,243.34 "/>
     <polygon id="180" fill="#FEAE00" points="323.09,344.12 672.83,241.17 675.81,252.09 "/>
     <polygon id="181" fill="#FEAE00" points="323.09,344.12 675.22,249.9 677.93,260.9 "/>
     <polygon id="182" fill="#FEAD00" points="323.09,344.12 677.39,258.7 679.84,269.76 "/>
     <polygon id="183" fill="#FEAD00" points="323.09,344.12 679.35,267.54 681.53,278.66 "/>
     <polygon id="184" fill="#FEAC00" points="323.09,344.12 681.09,276.43 683,287.6 "/>
     <polygon id="185" fill="#FEAB00" points="323.09,344.12 682.62,285.37 684.26,296.58 "/>
     <polygon id="186" fill="#FEAB00" points="323.09,344.12 683.93,294.33 685.3,305.58 "/>
     <polygon id="187" fill="#FEAA00" points="323.09,344.12 685.02,303.33 686.12,314.61 "/>
     <polygon id="188" fill="#FEA900" points="323.09,344.12 685.9,312.35 686.72,323.65 "/>
     <polygon id="189" fill="#FEA900" points="323.09,344.12 686.56,321.39 687.11,332.71 "/>
     <polygon id="190" fill="#FEA800" points="323.09,344.12 687,330.45 687.27,341.78 "/>
     <polygon id="191" fill="#FEA700" points="323.09,344.12 687.22,339.51 687.22,350.84 "/>
     <polygon id="192" fill="#FEA601" points="323.09,344.12 687.22,348.58 686.94,359.91 "/>
     <polygon id="193" fill="#FEA401" points="323.09,344.12 687,357.64 686.45,368.96 "/>
     <polygon id="194" fill="#FEA302" points="323.09,344.12 686.56,366.7 685.74,378 "/>
     <polygon id="195" fill="#FEA103" points="323.09,344.12 685.9,375.74 684.81,387.02 "/>
     <polygon id="196" fill="#FEA003" points="323.09,344.12 685.02,384.76 683.66,396.01 "/>
     <polygon id="197" fill="#FE9F04" points="323.09,344.12 683.93,393.76 682.29,404.97 "/>
     <polygon id="198" fill="#FE9D04" points="323.09,344.12 682.62,402.73 680.71,413.89 "/>
     <polygon id="199" fill="#FE9C04" points="323.09,344.12 681.09,411.66 678.91,422.77 "/>
     <polygon id="200" fill="#FE9B05" points="323.09,344.12 679.35,420.55 676.9,431.61 "/>
     <polygon id="201" fill="#FE9A05" points="323.09,344.12 677.39,429.4 674.67,440.39 "/>
     <polygon id="202" fill="#FE9806" points="323.09,344.12 675.22,438.19 672.24,449.11 "/>
     <polygon id="203" fill="#FE9706" points="323.09,344.12 672.83,446.93 669.59,457.77 "/>
     <polygon id="204" fill="#FE9607" points="323.09,344.12 670.24,455.6 666.73,466.37 "/>
     <polygon id="205" fill="#FE9507" points="323.09,344.12 667.44,464.21 663.67,474.89 "/>
     <polygon id="206" fill="#FE9408" points="323.09,344.12 664.42,472.75 660.4,483.32 "/>
     <polygon id="207" fill="#FE9308" points="323.09,344.12 661.21,481.21 656.93,491.68 "/>
     <polygon id="208" fill="#FE9109" points="323.09,344.12 657.79,489.59 653.26,499.95 "/>
     <polygon id="209" fill="#FE9009" points="323.09,344.12 654.17,497.87 649.39,508.12 "/>
     <polygon id="210" fill="#FE8F09" points="323.09,344.12 650.35,506.07 645.32,516.19 "/>
     <polygon id="211" fill="#FE8E0A" points="323.09,344.12 646.33,514.17 641.06,524.17 "/>
     <polygon id="212" fill="#FE8D0A" points="323.09,344.12 642.11,522.16 636.61,532.03 "/>
     <polygon id="213" fill="#FE8C0B" points="323.09,344.12 637.71,530.05 631.97,539.78 "/>
     <polygon id="214" fill="#FE8B0B" points="323.09,344.12 633.11,537.83 627.14,547.41 "/>
     <polygon id="215" fill="#FE8A0B" points="323.09,344.12 628.33,545.49 622.13,554.92 "/>
     <polygon id="216" fill="#FE890C" points="323.09,344.12 623.37,553.03 616.93,562.3 "/>
     <polygon id="217" fill="#FE880C" points="323.09,344.12 618.22,560.44 611.57,569.55 "/>
     <polygon id="218" fill="#FE870D" points="323.09,344.12 612.9,567.73 606.02,576.66 "/>
     <polygon id="219" fill="#FE860D" points="323.09,344.12 607.4,574.88 600.31,583.64 "/>
     <polygon id="220" fill="#FE850D" points="323.09,344.12 601.73,581.88 594.43,590.47 "/>
     <polygon id="221" fill="#FE840E" points="323.09,344.12 595.89,588.75 588.39,597.15 "/>
     <polygon id="222" fill="#FE830E" points="323.09,344.12 589.89,595.47 582.18,603.68 "/>
     <polygon id="223" fill="#FF820E" points="323.09,344.12 583.73,602.04 575.83,610.05 "/>
     <polygon id="224" fill="#FF810F" points="323.09,344.12 577.41,608.45 569.31,616.26 "/>
     <polygon id="225" fill="#FF800F" points="323.09,344.12 570.93,614.7 562.66,622.31 "/>
     <polygon id="226" fill="#FF7F0F" points="323.09,344.12 564.31,620.79 555.85,628.19 "/>
     <polygon id="227" fill="#FF7E10" points="323.09,344.12 557.54,626.71 548.91,633.9 "/>
     <polygon id="228" fill="#FF7D10" points="323.09,344.12 550.63,632.47 541.83,639.44 "/>
     <polygon id="229" fill="#FF7C11" points="323.09,344.12 543.59,638.04 534.61,644.8 "/>
     <polygon id="230" fill="#FF7B11" points="323.09,344.12 536.41,643.45 527.27,649.97 "/>
     <polygon id="231" fill="#FF7A11" points="323.09,344.12 529.1,648.67 519.81,654.97 "/>
     <polygon id="232" fill="#FF7912" points="323.09,344.12 521.67,653.71 512.23,659.77 "/>
     <polygon id="233" fill="#FF7812" points="323.09,344.12 514.12,658.56 504.54,664.39 "/>
     <polygon id="234" fill="#FF7713" points="323.09,344.12 506.45,663.22 496.73,668.81 "/>
     <polygon id="235" fill="#FF7613" points="323.09,344.12 498.68,667.69 488.83,673.04 "/>
     <polygon id="236" fill="#FF7513" points="323.09,344.12 490.8,671.97 480.82,677.06 "/>
     <polygon id="237" fill="#FF7414" points="323.09,344.12 482.81,676.04 472.71,680.89 "/>
     <polygon id="238" fill="#FF7314" points="323.09,344.12 474.73,679.92 464.52,684.52 "/>
     <polygon id="239" fill="#FF7115" points="323.09,344.12 466.56,683.6 456.24,687.94 "/>
     <polygon id="240" fill="#FF7015" points="323.09,344.12 458.31,687.07 447.88,691.15 "/>
     <polygon id="241" fill="#FF6F16" points="323.09,344.12 449.97,690.33 439.45,694.15 "/>
     <polygon id="242" fill="#FF6E16" points="323.09,344.12 441.55,693.39 430.94,696.95 "/>
     <polygon id="243" fill="#FF6D16" points="323.09,344.12 433.07,696.24 422.38,699.53 "/>
     <polygon id="244" fill="#FF6B17" points="323.09,344.12 424.51,698.87 413.75,701.89 "/>
     <polygon id="245" fill="#FF6A17" points="323.09,344.12 415.9,701.29 405.06,704.04 "/>
     <polygon id="246" fill="#FF6918" points="323.09,344.12 407.23,703.49 396.33,705.98 "/>
     <polygon id="247" fill="#FF6818" points="323.09,344.12 398.51,705.48 387.55,707.69 "/>
     <polygon id="248" fill="#FF6619" points="323.09,344.12 389.74,707.25 378.74,709.19 "/>
     <polygon id="249" fill="#FF6519" points="323.09,344.12 380.94,708.8 369.89,710.47 "/>
     <polygon id="250" fill="#FF641A" points="323.09,344.12 372.1,710.14 361.01,711.53 "/>
     <polygon id="251" fill="#FF621A" points="323.09,344.12 363.23,711.25 352.11,712.36 "/>
     <polygon id="252" fill="#FF611B" points="323.09,344.12 354.33,712.14 343.19,712.97 "/>
     <polygon id="253" fill="#FF5F1B" points="323.09,344.12 345.42,712.81 334.26,713.37 "/>
     <polygon id="254" fill="#FF5E1C" points="323.09,344.12 336.49,713.25 325.32,713.53 "/>
     <polygon id="255" fill="#4FDCE5" points="323.09,344.12 327.56,713.48 318.62,713.48 "/>
    </g>
   </g>
  </g>
 </g>
</svg>
